<svg xmlns="http://www.w3.org/2000/svg" fill="none" height="20" width="20" style=""><rect id="backgroundrect" width="100%" height="100%" x="0" y="0" fill="none" stroke="none"/><g class="currentLayer" style=""><title>Layer 1</title><path d="M7,0.91837L7,2.91837M13,0.91837L13,2.91837M6.91837,16.91837L6.91837,18.91837M13,16.91837L13,18.91837M3,6.91837L1,6.91837M3,12.91837L1,12.91837M19,6.91837L17,6.91837M19,12.91837L17,12.91837M5,16.91837L15,16.91837C16.1046,16.91837 17,16.02297 17,14.91837L17,4.91837C17,3.8138 16.1046,2.91837 15,2.91837L5,2.91837C3.89543,2.91837 3,3.8138 3,4.91837L3,14.91837C3,16.02297 3.89543,16.91837 5,16.91837zM7,6.91837L12.91837,9.85715L13,9.97959L7,12.91837L7,6.91837z" stroke="#ffffff" stroke-linecap="round" stroke-linejoin="round" stroke-width="2" id="svg_1" class=""/></g></svg>