<svg xmlns="http://www.w3.org/2000/svg" fill="none" height="20" width="20" style=""><rect id="backgroundrect" width="100%" height="100%" x="0" y="0" fill="none" stroke="none" class="" style=""/><g class="currentLayer" style=""><title>Layer 1</title><path d="M7,1L7,3M13,1L13,3M6.91837,17L6.91837,19M13,17L13,19M3,7L1,7M3,13L1,13M19,7L17,7M19,13L17,13M5,17L15,17C16.1046,17 17,16.1046 17,15L17,5C17,3.89543 16.1046,3 15,3L5,3C3.89543,3 3,3.89543 3,5L3,15C3,16.1046 3.89543,17 5,17zM8.10638,7.42553L12.06731,9.93878L12.14894,10.06122L8.10638,12.65958L8.10638,7.42553z" stroke="#ffffff" stroke-linecap="round" stroke-linejoin="round" stroke-width="2" id="svg_1" class="selected" stroke-opacity="1"/></g></svg>