<?xml version="1.0" standalone="no"?>
<!DOCTYPE svg PUBLIC "-//W3C//DTD SVG 20010904//EN"
 "http://www.w3.org/TR/2001/REC-SVG-20010904/DTD/svg10.dtd">
<svg version="1.0" xmlns="http://www.w3.org/2000/svg"
 width="700.000000pt" height="700.000000pt" viewBox="0 0 700.000000 700.000000"
 preserveAspectRatio="xMidYMid meet">
<metadata>
Created by potrace 1.11, written by Peter Selinger 2001-2013
</metadata>
<g transform="translate(0.000000,700.000000) scale(0.100000,-0.100000)"
fill="#000000" stroke="none">
<path d="M2352 6985 c-99 -30 -175 -96 -220 -193 -26 -55 -27 -64 -30 -272 -2
-118 -5 -216 -6 -217 -1 -1 -101 -3 -222 -3 -243 -2 -331 -13 -468 -59 -381
-130 -656 -477 -700 -886 -3 -22 -5 -133 -5 -247 l-1 -206 -218 -4 -218 -3
-66 -33 c-77 -38 -130 -92 -167 -171 -22 -47 -26 -70 -26 -141 0 -76 4 -93 33
-152 38 -77 92 -130 171 -167 54 -25 63 -26 274 -29 l217 -3 0 -699 0 -699
-218 -3 -218 -3 -66 -33 c-77 -38 -130 -92 -167 -171 -22 -47 -26 -70 -26
-141 0 -70 5 -95 27 -141 36 -79 89 -133 166 -171 l66 -33 218 -3 218 -3 1
-207 c0 -114 2 -227 5 -252 12 -121 61 -279 115 -376 18 -32 37 -68 43 -79 6
-11 17 -27 23 -35 7 -8 33 -40 57 -70 111 -140 275 -254 459 -319 143 -50 207
-59 462 -60 109 -1 200 -3 202 -4 1 -2 3 -92 3 -201 1 -109 6 -212 12 -229 36
-113 101 -191 195 -235 48 -22 72 -26 143 -27 77 0 92 3 152 33 74 36 136 98
170 171 20 42 22 66 26 269 l4 222 713 0 714 0 3 -217 c3 -211 4 -220 29 -274
37 -79 90 -133 167 -171 60 -30 75 -33 152 -33 65 1 96 6 133 23 104 47 176
129 202 230 11 40 15 112 15 249 l0 193 208 1 c273 0 320 6 476 56 147 48 287
134 401 247 180 178 270 367 309 641 2 17 5 125 5 242 l1 212 218 3 218 3 66
33 c77 38 130 92 167 171 22 47 26 70 26 141 0 76 -4 93 -33 152 -38 77 -92
130 -171 167 -54 25 -63 26 -273 29 l-218 4 0 698 0 699 218 3 218 3 65 32
c78 38 131 93 167 171 22 47 26 71 27 142 0 77 -3 92 -33 153 -38 77 -103 139
-178 170 -43 18 -77 21 -266 25 l-216 4 -5 251 c-2 139 -7 261 -10 272 -3 11
-12 49 -21 85 -98 416 -481 745 -911 784 -27 3 -141 5 -252 5 l-201 1 -4 218
-3 218 -33 66 c-38 77 -92 130 -171 166 -46 22 -71 26 -141 27 -110 0 -181
-31 -256 -111 -82 -87 -94 -138 -94 -384 l0 -200 -699 0 -699 0 -4 218 c-3
209 -4 219 -29 272 -14 30 -38 70 -53 87 -85 100 -237 145 -364 108z m3050
-1423 c77 -37 128 -90 167 -172 l26 -55 0 -1835 0 -1835 -26 -56 c-37 -79 -90
-133 -167 -171 l-67 -33 -1835 0 -1835 0 -55 26 c-108 51 -179 138 -200 245
-8 43 -10 550 -8 1859 l3 1800 26 55 c46 99 120 164 222 196 34 10 376 12
1862 11 l1820 -2 67 -33z"/>
<path d="M2754 4741 c-117 -30 -214 -122 -248 -233 -16 -53 -18 -132 -18
-1022 0 -1074 -2 -1027 68 -1122 71 -96 171 -144 290 -141 95 3 127 17 284
118 63 42 139 91 169 110 66 41 349 223 486 312 55 36 201 130 325 209 353
225 383 247 417 291 68 90 91 222 57 322 -19 59 -76 148 -119 188 -25 23 -256
173 -765 495 -30 19 -77 49 -105 67 -229 149 -588 372 -625 388 -49 22 -164
32 -216 18z m506 -1022 c3 -3 16 -12 29 -19 14 -7 30 -17 35 -22 6 -5 58 -38
116 -74 58 -36 122 -77 142 -91 l38 -26 -96 -61 c-53 -33 -107 -68 -120 -76
-13 -8 -65 -41 -115 -73 -50 -32 -93 -56 -96 -53 -5 4 -7 392 -3 519 0 17 1
17 33 0 17 -10 34 -21 37 -24z"/>
</g>
</svg>
