<?xml version="1.0" standalone="no"?>
<!DOCTYPE svg PUBLIC "-//W3C//DTD SVG 20010904//EN"
 "http://www.w3.org/TR/2001/REC-SVG-20010904/DTD/svg10.dtd">
<svg version="1.0" xmlns="http://www.w3.org/2000/svg"
 width="700.000000pt" height="700.000000pt" viewBox="0 0 700.000000 700.000000"
 preserveAspectRatio="xMidYMid meet">
<metadata>
Created by potrace 1.11, written by Peter Selinger 2001-2013
</metadata>
<g transform="translate(0.000000,700.000000) scale(0.100000,-0.100000)"
fill="#000000" stroke="none">
<path d="M2257 6969 c-59 -39 -93 -80 -126 -149 -25 -53 -26 -63 -29 -272 l-4
-218 -214 -1 c-118 -1 -217 -2 -221 -3 -5 -1 -35 -6 -68 -10 -329 -44 -626
-260 -786 -574 -21 -42 -39 -82 -39 -90 0 -7 -6 -25 -14 -41 -16 -29 -47 -171
-51 -230 -1 -20 -3 -129 -4 -243 l-1 -206 -217 -4 c-122 -3 -229 -9 -243 -15
-14 -6 -27 -10 -30 -9 -7 1 -69 -43 -106 -77 -17 -15 -47 -58 -65 -94 -29 -57
-34 -78 -35 -142 -2 -124 48 -227 142 -294 84 -59 116 -65 347 -66 l207 -1 0
-700 0 -700 -192 0 c-217 0 -269 -9 -348 -60 -198 -127 -212 -413 -27 -563 78
-64 138 -77 367 -77 l200 0 1 -212 c0 -241 2 -269 30 -388 22 -92 22 -92 69
-195 107 -233 331 -445 560 -530 25 -9 54 -21 65 -25 19 -8 74 -22 140 -36 17
-4 136 -9 265 -11 129 -3 236 -6 237 -7 1 -1 3 -92 4 -201 1 -162 5 -210 19
-253 82 -247 390 -322 576 -140 23 22 55 65 70 96 29 57 29 58 32 280 l4 222
713 0 713 0 4 -222 3 -223 34 -63 c82 -151 248 -223 408 -177 102 30 174 93
222 195 25 53 26 63 29 273 l4 217 216 1 c247 0 272 2 401 35 81 20 259 96
295 125 6 5 45 35 86 67 163 126 287 306 351 505 37 115 48 213 49 441 0 121
2 221 3 222 1 1 101 4 222 6 209 3 223 5 269 28 71 34 140 105 173 175 24 51
28 72 28 145 -1 71 -5 95 -28 144 -35 76 -111 149 -185 177 -70 26 -84 27
-304 28 l-178 1 0 700 0 700 198 1 c108 0 210 3 226 5 87 15 186 92 236 186
32 58 34 70 34 153 1 77 -3 98 -26 147 -34 73 -102 141 -175 175 -57 27 -63
28 -275 31 l-218 4 0 206 c0 130 -6 243 -15 303 -62 412 -367 748 -774 854
-50 13 -98 21 -181 30 -14 2 -116 3 -227 4 l-201 1 -4 218 c-3 210 -4 219 -29
273 -32 68 -68 110 -128 149 -44 30 -45 30 -191 30 l-147 0 -46 -31 c-55 -36
-99 -89 -130 -156 -20 -44 -22 -65 -25 -265 l-3 -218 -700 0 -699 0 -1 193
c-1 217 -3 234 -30 296 -28 65 -63 107 -122 146 l-52 35 -146 0 -146 0 -46
-31z m3133 -1371 c84 -41 135 -90 172 -166 l33 -67 2 -1815 c2 -1285 -1 -1828
-9 -1861 -14 -62 -73 -146 -132 -190 -97 -73 59 -68 -1957 -68 -1680 -1 -1818
0 -1860 16 -94 36 -158 93 -207 187 l-27 51 0 1840 0 1840 22 48 c46 99 117
164 216 198 49 17 148 18 1872 16 l1820 -2 55 -27z"/>
<path d="M2360 4915 c-101 -27 -183 -97 -228 -193 l-27 -57 -3 -1114 c-2 -999
-1 -1120 14 -1170 55 -190 266 -299 448 -231 30 12 133 60 228 107 95 47 259
127 363 178 414 202 634 310 960 470 187 92 404 198 482 236 145 70 208 115
248 179 91 146 61 336 -74 470 -49 49 -90 73 -341 197 -157 78 -629 312 -1050
520 -421 209 -782 387 -803 397 -47 22 -158 28 -217 11z m931 -1145 c265 -132
484 -242 487 -245 4 -4 -111 -61 -677 -337 -112 -54 -226 -110 -252 -124 l-49
-24 0 485 c0 267 2 485 5 485 2 0 221 -108 486 -240z"/>
</g>
</svg>
