<?xml version="1.0" standalone="no"?>
<!DOCTYPE svg PUBLIC "-//W3C//DTD SVG 20010904//EN"
 "http://www.w3.org/TR/2001/REC-SVG-20010904/DTD/svg10.dtd">
<svg version="1.0" xmlns="http://www.w3.org/2000/svg"
 width="280.000000pt" height="280.000000pt" viewBox="0 0 280.000000 280.000000"
 preserveAspectRatio="xMidYMid meet">
<metadata>
Created by potrace 1.11, written by Peter Selinger 2001-2013
</metadata>
<g transform="translate(0.000000,280.000000) scale(0.100000,-0.100000)"
fill="#000000" stroke="none">
<path d="M264 2791 c-91 -22 -185 -101 -234 -197 l-25 -49 0 -1140 0 -1140 26
-56 c36 -76 86 -129 161 -170 l63 -34 1145 0 1145 0 63 34 c75 41 125 94 161
170 l26 56 0 1140 0 1140 -25 49 c-37 73 -91 128 -162 167 l-63 34 -1125 2
c-619 0 -1139 -2 -1156 -6z m1020 -638 c92 -23 177 -79 227 -154 l38 -55 73
71 c80 78 147 116 250 140 123 29 288 12 394 -40 67 -33 138 -109 175 -189 56
-119 59 -163 59 -767 l0 -549 -205 0 -205 0 0 523 c0 587 -1 600 -65 656 -40
34 -82 45 -176 45 -85 0 -158 -39 -206 -109 l-33 -47 0 -534 0 -534 -205 0
-204 0 -3 538 -3 537 -25 50 c-35 70 -89 99 -185 99 -103 1 -161 -19 -217 -76
l-48 -47 0 -551 0 -550 -205 0 -205 0 0 765 0 765 189 0 188 0 7 -37 c3 -21 6
-57 6 -80 0 -24 3 -43 8 -43 4 0 23 17 42 37 124 129 337 183 534 136z"/>
</g>
</svg>
